<?xml version="1.0" standalone="no"?>
<!DOCTYPE svg PUBLIC "-//W3C//DTD SVG 20010904//EN"
 "http://www.w3.org/TR/2001/REC-SVG-20010904/DTD/svg10.dtd">
<svg version="1.0" xmlns="http://www.w3.org/2000/svg"
 width="512.000000pt" height="512.000000pt" viewBox="0 0 512.000000 512.000000"
 preserveAspectRatio="xMidYMid meet">
<metadata>
Created by potrace 1.11, written by Peter Selinger 2001-2013
</metadata>
<g transform="translate(0.000000,512.000000) scale(0.100000,-0.100000)"
fill="#000000" stroke="none">
<path d="M3685 4785 c-147 -27 -315 -102 -415 -186 -110 -92 -3245 -3239
-3258 -3271 -28 -66 12 -163 77 -190 18 -8 333 -12 1011 -12 l985 -1 3 -253 2
-252 -107 0 c-90 0 -113 -3 -141 -20 -99 -60 -95 -206 6 -257 l43 -21 842 1
842 2 33 23 c91 65 81 205 -18 254 -31 16 -68 18 -297 18 l-263 0 0 250 c0
138 3 250 8 250 4 1 108 2 232 4 124 2 258 9 297 15 627 94 1115 578 1214
1204 17 106 17 138 18 762 l1 591 91 -1 c50 0 106 5 126 11 100 35 134 154 66
235 -37 44 -64 52 -182 53 -118 2 -110 -5 -136 101 -9 39 -34 108 -56 153
-130 279 -377 470 -694 538 -60 12 -261 12 -330 -1z m-957 -3913 l2 -252 -170
0 -170 0 0 253 0 252 168 0 167 0 3 -253z"/>
</g>
</svg>
